<svg xmlns="http://www.w3.org/2000/svg" xmlns:xlink="http://www.w3.org/1999/xlink" width="700" zoomAndPan="magnify" viewBox="0 0 525 505.49999" height="674" preserveAspectRatio="xMidYMid meet" version="1.0"><defs><clipPath id="id1"><path d="M 0.257812 0 L 524.738281 0 L 524.738281 505 L 0.257812 505 Z M 0.257812 0 " clip-rule="nonzero"/></clipPath><clipPath id="id2"><path d="M 75.183594 75.292969 L 449.714844 75.292969 L 449.714844 429.507812 L 75.183594 429.507812 Z M 75.183594 75.292969 " clip-rule="nonzero"/></clipPath><clipPath id="id3"><path d="M 160.386719 140.328125 L 383.867188 140.328125 L 383.867188 429.175781 L 160.386719 429.175781 Z M 160.386719 140.328125 " clip-rule="nonzero"/></clipPath></defs><g clip-path="url(#id1)"><path fill="#ffffff" d="M 0.257812 0 L 524.742188 0 L 524.742188 512.492188 L 0.257812 512.492188 Z M 0.257812 0 " fill-opacity="1" fill-rule="nonzero"/><path fill="#ffffff" d="M 0.257812 0 L 524.742188 0 L 524.742188 505 L 0.257812 505 Z M 0.257812 0 " fill-opacity="1" fill-rule="nonzero"/><path fill="#ffffff" d="M 0.257812 0 L 524.742188 0 L 524.742188 505 L 0.257812 505 Z M 0.257812 0 " fill-opacity="1" fill-rule="nonzero"/></g><g clip-path="url(#id2)"><path fill="#8c52ff" d="M 92.414062 75.292969 L 432.484375 75.292969 C 442 75.292969 449.714844 83.003906 449.714844 92.519531 L 449.714844 412.285156 C 449.714844 421.796875 442 429.507812 432.484375 429.507812 L 92.414062 429.507812 C 82.898438 429.507812 75.1875 421.796875 75.1875 412.285156 L 75.1875 92.519531 C 75.1875 83.003906 82.898438 75.292969 92.414062 75.292969 " fill-opacity="1" fill-rule="nonzero"/></g><g clip-path="url(#id3)"><path fill="#ffffff" d="M 281.691406 140.535156 L 166.957031 140.535156 C 163.332031 140.535156 160.386719 143.476562 160.386719 147.097656 L 160.386719 422.570312 C 160.386719 426.191406 163.332031 429.132812 166.957031 429.132812 L 212.96875 429.132812 C 216.597656 429.132812 219.542969 426.191406 219.542969 422.570312 L 219.542969 337.253906 L 279.519531 337.253906 C 340.957031 337.253906 383.867188 296.433594 383.867188 237.992188 C 383.867188 179.703125 342.804688 140.535156 281.691406 140.535156 Z M 268.570312 291.3125 L 219.542969 291.3125 L 219.542969 186.308594 L 268.761719 186.308594 C 304.523438 186.308594 324.710938 204.785156 324.710938 239.199219 C 324.710938 272.648438 303.945312 291.3125 268.570312 291.3125 Z M 268.570312 291.3125 " fill-opacity="1" fill-rule="nonzero"/></g></svg>